<?xml version="1.0" encoding="UTF-8"?>
<svg id="Layer_2" data-name="Layer 2" xmlns="http://www.w3.org/2000/svg" viewBox="0 0 536.02 252.06">
  <defs>
    <style>
      .cls-1 {
        fill: #fff;
      }
    </style>
  </defs>
  <g id="Layer_1-2" data-name="Layer 1">
    <g>
      <path class="cls-1" d="M536.02,0l-.72,252.06-101.93-23.65-.77-204.76L536.02,0ZM511.98,110.62c-7.73,1.05-7.01,15.37,1.37,14.81,8.28-.56,7.56-16.02-1.37-14.81Z"/>
      <path class="cls-1" d="M83.68,106.48c-.24.07-1.11,1.1-1.16,1.48-4.34,19.38-5.97,38.65-21.88,52.47-11.51,10-31.18,14.86-45.38,8.2-17.73-8.32-21.09-31.41-4.37-42.83,7.3-4.99,18.82-6.91,26.85-2.67,5.17,2.73,8.19,8.92,3.7,13.78-2.55,2.75-7.3,3.04-9.11-.47,3.65-3.92,1.01-10.24-4.31-10.79-7.79-.79-13.67,5.46-15.59,12.47-3.13,11.42,1.85,23.26,13.79,26.26,20.76,5.23,33.3-16.57,37.84-33.41,4.76-17.68,7.64-36.39,11.94-54.26,2.47-10.27,5.7-20.82,12.6-29.01l-11.17.25c-.49.03-.97-.24-1.43-.25-17.73-.38-38.17-1.88-53.31,9.06-7.7,5.56-12.49,14.92-10.79,24.56,1.6,9.04,11.41,15.64,20.13,11.4,4.74-2.31,8.49-9.05,4.76-13.69,4.12-5.4,11.82-3.77,12.45,3.33.92,10.4-10.56,16.71-19.55,17.38-22.72,1.7-33.43-21.96-23.27-40.53,8.92-16.31,28.62-22.65,46.32-21.83,12.16.56,26.22,4.6,38.13,3.6,5.3-.44,8.27-5.51,13.16-7.71,2.53-1.14,8.07-2.54,8.56,1.59.56,4.71-5.03,8.23-8.82,9.66-2.22.84-3.55.56-5.2,2.48-3.04,3.53-5.6,10.61-6.98,15.09-3.51,11.42-4.72,23.62-7.03,35.32.18.74.77,1.11,1.51,1.13l34.21-.11c.95-.17,1.32-.91,1.6-1.76,3.76-15.97,5.25-33.26,9.49-49.03,6.37-23.69,27.67-42.9,53.48-38.25,28.84,5.2,31.68,42.36,3.08,49.45-6.63,1.65-17.37,1.2-21.79-4.84-5.16-7.04,3.19-17.22,9.79-10.03-3.95,3.6-1.37,10.15,3.78,10.85,17.53,2.38,23.83-28.31,6.38-37.08-20.44-10.27-36.67,11.46-41.89,28.56-4.09,13.38-6.48,30.52-8.98,44.51-1.69,9.48-4.48,21.49-5.11,30.87-.13,1.87-.36,5.12,1.91,5.76,2.07.59,3.37-.45,3.09,2.6-.11,1.29-.5,3.56-2,3.76-2.63.34-6.61-.53-9.36-.5-4.24-.46-9.34.88-13.46.5-.53-.05-1.04-.05-1.43-.49-.43-.73.23-4.04.73-4.79.8-1.2,2.18-.76,3.29-1.02,1.75-.41,3.08-2.69,3.64-4.27.96-2.69,3.1-12.5,3.23-15.26.03-.63-.1-1.09-.58-1.52h-35.51Z"/>
      <path class="cls-1" d="M113.5,145.89c8.78-.58,18.23.4,27.03.66,4.04.12,8.24-.22,12.25-.02,38.56,1.89,37.72,51.95,11.22,70-13.87,9.44-26.83,6.59-42.41,6.51-3.27-.02-7.21.62-10.34.26-1.74-.2-.8-3.15-.42-4.28.83-2.45,2.03-1.52,3.92-2.08,2-.59,3.24-2.96,3.84-4.8,2.03-6.22,3.54-14.91,4.91-21.47,2.23-10.67,4.09-21.49,5.63-32.26-.64-3.99-4.49-5.72-8.1-6.29-15.92-2.51-34.43,11.17-32.92,28.11.67,7.5,8.12,13.98,15.6,10.09,3.18-1.66,5.81-6.72,2.87-9.61,6.03-6.48,13.8-.33,9.96,7.56-2.45,5.04-9.62,7.64-14.89,8.14-17.03,1.62-30.32-12.09-23.5-29.01,5.31-13.2,21.85-20.63,35.33-21.52ZM150.68,152.84c-4.68.4-7.03,3.06-8.23,7.36-2.96,10.57-5.24,23.14-7.24,34.01-.88,4.76-2.71,12.36-2.73,16.95-.03,6.07,4.97,6.25,9.73,5.87,22.98-1.81,33.86-36.74,24.24-54.92-3.09-5.84-8.97-9.85-15.77-9.28Z"/>
      <path class="cls-1" d="M398.32,109.12c1.07-7.59,2.74-15.11,3.8-22.7.53-3.8,2.23-9.17-2.79-10.32-1.58-.36-4.06.23-4.05-1.83,0-.52.65-3.48.9-3.86.94-1.41,4.58-.41,6.08-.37,4.22.11,8.76.11,12.97,0,1.2-.03,5.1-.8,5.87-.13.82.72-.09,4.86-.94,5.53-.66.53-2.79.4-3.87.69-5.36,1.44-5.87,7.49-6.87,12.08-2.92,13.31-4.68,26.91-6.6,40.4-.36,1.2-1.32,1.49-2.47,1.61-1.2.12-7.42.16-8.21-.18-.32-.14-.57-.41-.74-.69-5.61-15.85-10.52-32-17.43-47.33-1.94,10.49-4.15,21-5.6,31.58-.34,2.45-1.28,6.35-.25,8.57,1.52,3.28,6.19,1.72,6.81,2.78.52.89-.26,5.1-1.38,5.58-1.31.56-5.57-.26-7.25-.31-3.02-.09-6.35-.09-9.38,0-1.67.05-5.77.81-7.08.39-1.48-.48-.65-3.69-.22-4.8.68-1.79,2.21-1.14,3.65-1.39,5.47-.92,6.31-5.91,7.3-10.45,1.99-9.11,4.66-22,5.32-31.13.23-3.2.36-5.85-3.27-6.74-1.53-.38-4.13.24-4.12-1.83,0-.65.73-3.7,1.17-4.12,1.03-.99,4.91-.13,6.36-.09,3.67.08,7.63.11,11.3,0,1.77-.05,4.79-1.04,6.23.22.64.56,1.8,4.16,2.21,5.22,4.04,10.6,7.47,21.47,11.64,32.02.21.52.38,1.35.9,1.62Z"/>
      <path class="cls-1" d="M350.82,202.18c-.25.29,1.64,3.33,1.97,3.91,1.64,2.84,4.68,8.53,7.63,9.88,2.04.93,4.93-.14,4.78,2.6-.3,5.58-3.86,4.23-8.27,4.25-1.25,0-2.57,0-3.82,0-2.5-.01-5.9.73-7.37-1.52-1.72-2.64-3.89-7.97-5.27-11.04-1.11-2.47-3.99-8.14-4.41-10.47-.53-2.96,2.46-2.13,4.31-2.43,10.06-1.67,16.68-11.24,13.89-21.26-1.24-4.47-4.04-7.09-8.65-7.9-5.45-.97-7.41.49-8.86,5.64s-2.38,11.42-3.35,16.79c-1.1,6.13-2.78,13.74-3.19,19.83-.14,2.04-.39,5.35,2.15,6,2.16.55,3.16-.69,2.86,2.6-.09,1.01-.48,3.14-1.47,3.57-1.32.56-5.56-.26-7.25-.31-3.02-.09-6.35-.09-9.38,0-1.67.05-5.77.81-7.08.39-1.48-.48-.7-3.08-.35-4.21.75-2.46,1.55-1.6,3.5-2.02,3.73-.8,4.49-6.83,5.19-9.92,2.12-9.45,4.89-22.58,5.56-32.09.09-1.26.2-3.4-.2-4.54-.95-2.72-4.39-1.54-4.77-2.67-.33-.98.35-4.45,1.27-5.12,1.11-.8,1.61-.23,2.63-.22,3.14,0,6.24,0,9.36-.02,10.83-.11,27.16-2.1,33.52,8.96,7.23,12.57-1.72,28.08-14.92,31.34Z"/>
      <path class="cls-1" d="M219.78,160.76c31.85-1.38,35.3,36.91,15.65,54.73-15.98,14.49-45.96,12.13-49.6-12.3-3.17-21.26,12.17-41.49,33.95-42.43ZM219.78,166.99c-15.23,1.05-22.31,24.04-20.79,36.71,2.14,17.91,19.26,18.63,28.28,5.07,7.26-10.91,12.91-43.2-7.49-41.78Z"/>
      <path class="cls-1" d="M284.55,160.76c31.85-1.38,35.3,36.91,15.65,54.73-15.98,14.49-45.96,12.13-49.6-12.3-3.17-21.26,12.17-41.49,33.95-42.43ZM284.55,166.99c-15.23,1.05-22.31,24.04-20.79,36.71,2.14,17.91,19.26,18.63,28.28,5.07,7.26-10.91,12.91-43.2-7.49-41.78Z"/>
      <path class="cls-1" d="M173.89,96.89c.82-.14,2.43-1.46,2.87-2.17.67-1.07.54-3.26,1.58-3.93.89-.58,7.35-1.12,6.7,1.4-1.42,4.62-2.25,9.39-2.87,14.18-.14,1.04.19,3.25-.87,3.93-.61.39-5.55.42-6.28.1-1.17-.5.01-3.19-.1-4.21-.15-1.35-1.38-2.43-2.71-2.59s-4.9-.16-6.25,0c-.66.08-1.18.28-1.53.87-.58.98-1.22,5.98-1.43,7.45-.64,4.45-2.64,10.71,3.26,12.01,9.49,2.09,17.01-2.83,22.22-10.28,1.34-1.91,1.72-4.24,4.34-4.53,1.71-.19,3.97-.22,3.07,2.12-2.88,5.4-4.49,13.04-7.46,18.2-1.25,2.17-5.12,1.05-7.12,1.02-11.55-.18-23.02-.22-34.57,0-1.34.03-5.01.95-5.69-.53-.32-.69.45-4.08.91-4.73.82-1.14,3.23-.34,4.9-1.82,2.77-2.46,4.48-14.95,5.22-19.01,1.05-5.78,2.12-11.65,2.91-17.47.34-2.51,1.35-7.02.23-9.26s-4.15-.95-4.65-2.56c-.18-.58.58-4.33.99-4.8.96-1.12,2.52-.48,3.58-.47,11.07.09,22.05.12,33.13,0,1.59-.02,3.33-.85,4.48,1.02l5.18,15.7c.17,1.08-.51,1.57-1.44,1.81-4.24,1.11-4.55-1.8-6.48-4.47-3.99-5.52-9.36-8.54-16.39-7.84-1.51.15-2.52.65-3.44,1.84-1.69,2.19-4.19,14.17-4.36,17.23-.03.45.02,1.79.6,1.79,2.06,0,5.59.31,7.44,0Z"/>
      <path class="cls-1" d="M330.3,96.89c.82-.14,2.43-1.46,2.87-2.17.67-1.07.54-3.26,1.58-3.93.89-.58,7.35-1.12,6.7,1.4-1.42,4.62-2.25,9.39-2.87,14.18-.14,1.04.19,3.25-.87,3.93-.61.39-5.55.42-6.28.1-1.17-.5.01-3.19-.1-4.21-.15-1.35-1.38-2.43-2.71-2.59s-4.9-.16-6.25,0c-.66.08-1.18.28-1.53.87-.58.98-1.22,5.98-1.43,7.45-.64,4.45-2.64,10.71,3.26,12.01,9.49,2.09,17.01-2.83,22.22-10.28,1.34-1.91,1.72-4.24,4.34-4.53,1.71-.19,3.97-.22,3.07,2.12-2.88,5.4-4.49,13.04-7.46,18.2-1.25,2.17-5.12,1.05-7.12,1.02-11.55-.18-23.02-.22-34.57,0-1.34.03-5.01.95-5.69-.53-.32-.69.45-4.08.91-4.73.82-1.14,3.23-.34,4.9-1.82,2.77-2.46,4.48-14.95,5.22-19.01,1.05-5.78,2.12-11.65,2.91-17.47.34-2.51,1.35-7.02.23-9.26s-4.15-.95-4.65-2.56c-.18-.58.58-4.33.99-4.8.96-1.12,2.52-.48,3.58-.47,11.07.09,22.05.12,33.13,0,1.59-.02,3.33-.85,4.48,1.02l5.18,15.7c.17,1.08-.51,1.57-1.44,1.81-4.24,1.11-4.55-1.8-6.48-4.47-3.99-5.52-9.36-8.54-16.39-7.84-1.51.15-2.52.65-3.44,1.84-1.69,2.19-4.19,14.17-4.36,17.23-.03.45.02,1.79.6,1.79,2.06,0,5.59.31,7.44,0Z"/>
      <path class="cls-1" d="M394.43,161c4.23-.31,8.59.5,12.4,2.31,2.34-1.03,5.06-4.3,6.78-.53.81,1.78,3.41,10.79,3.63,12.68.17,1.47-.22,2.33-1.6,2.92-4.89,2.09-5.92-2.76-8.46-5.57-3.77-4.16-10.06-6.55-15.27-3.52-5.89,3.42-2.2,8.97,1.49,12.27,6.84,6.13,17.23,10.92,19,21.05,2.39,13.68-9.94,21.63-22.13,22.12-9.19.37-24.41-3.39-23.38-15.22.68-7.83,11.11-11.79,15.34-4.56-6.56,2.99-3.96,10.51,1.98,12.42,7.2,2.31,15.8-.84,14.82-9.54-1.1-9.84-22.51-14.73-23.75-28.06-1.05-11.39,8.84-17.99,19.14-18.75Z"/>
      <path class="cls-1" d="M224.44,130.41c-.72-.72.21-4.48.79-5.22.86-1.11,2.64-.4,3.7-1.09,1.26-.83,1.03-3.45.97-4.78-.1-2.23-.55-4.7-.72-6.95-.32-1.06-1.3-1.25-2.26-1.34-3.1-.29-9.64-.3-12.72.01-.76.08-1.76.32-2.29.9s-2.61,5.27-2.99,6.29c-.95,2.53-1.89,5.54,1.73,6.18.87.15,2.6-.2,3.07.78.34.7-.71,4.67-1.39,5.11-1.37.89-5.68-.04-7.48-.09-2.56-.07-5.38-.08-7.94,0-1.45.05-5.86.93-6.82.12s.2-4.69,1.06-5.39c.95-.77,1.78-.33,2.83-.53,5.46-1.05,8.46-9.04,10.7-13.53,5.34-10.72,10.33-21.63,15.56-32.41.5-.97.26-2.24-.87-2.58-.88-.27-2.16.18-2.37-1.24-.08-.55.99-4.04,1.38-4.45.92-.96,2.05-.4,3-.4,4.08,0,8.18.07,12.26,0,.96-.02,1.95-.56,2.84.01.77.49.95,2.14,1.07,3,1.04,7.03,1.19,14.66,1.95,21.79.82,7.64,1.47,17.23,2.98,24.6.49,2.36,1.48,4.75,4.11,5.24.66.13,1.73-.17,2.26.37.69.7-.29,5.94-2.06,5.87-2.8-.19-5.59-.15-8.39-.22-3.55-.09-6.97-.1-10.56-.02-.86.02-2.71.65-3.41-.05ZM216.5,104.06c.51.11,1,.24,1.52.27,2.24.15,6.48.23,8.65-.01.75-.08,1.53-.28,1.86-1.02l-1.74-22.24-10.26,21.76-.03,1.24Z"/>
      <path class="cls-1" d="M269.97,119.43l17.5-38.75c.29-1.11.59-2.91-.22-3.83-1.32-1.51-4.78-.37-5.18-2.02-.14-.59.8-4.08,1.22-4.56,1.06-1.2,4.69-.27,6.22-.23,3.52.09,7.3.1,10.82,0,1.23-.03,5.39-1.05,5.83.4.2.67-.67,4.22-1.15,4.76-.65.73-2.79.66-3.97,1.06-3.16,1.06-5,4.1-6.63,6.8l-21.42,46.22c-.48,1.1-1.28,1.34-2.4,1.44-2.2.2-8.49.3-10.55-.02-.63-.1-1.27-.54-1.47-1.17-.36-1.13-.48-3.84-.58-5.17-1.11-14.07-1.12-29-3.91-42.86-.4-1.99-1.2-4.58-3.29-5.34-1.2-.44-3.52.06-3.53-1.63s.87-4.87,2.95-4.95c1.88-.07,4.51.44,6.45.48,3.26.06,6.6.08,9.86,0,1.2-.03,5.39-.96,5.99.23.39.77-.45,4.1-.97,4.79-1,1.34-3.47.16-4.48,2-.66,1.19-.49,4.12-.43,5.56.44,10.01,1.64,21.15,2.64,31.18.19,1.87.5,3.77.72,5.64Z"/>
      <path class="cls-1" d="M442.7,14.15v4.56c-3.29.54-6.54,1.36-9.79,2.08-.9.2-2.83,1.04-3.52,1.04h-115.27v39.81h-7.68V14.15h136.27Z"/>
      <path class="cls-1" d="M442.7,233.35v4.32h-136.27v-7.67h122.95c.19,0,2.16.93,2.76,1.08,3.48.88,7.04,1.56,10.56,2.28Z"/>
    </g>
  </g>
</svg>